<svg width="25" height="25" viewBox="0 0 25 25" fill="none" xmlns="http://www.w3.org/2000/svg">
<path d="M12.8978 18.5545L13.3569 19.4429H13.3569L12.8978 18.5545ZM12.1022 18.5545L11.643 19.4429H11.643L12.1022 18.5545ZM18.7916 9.37501C18.7916 11.6335 17.6377 13.4928 16.2067 14.9311C14.7768 16.3682 13.155 17.2959 12.4386 17.6662L13.3569 19.4429C14.1629 19.0263 15.9881 17.9864 17.6245 16.3417C19.2598 14.6981 20.7916 12.361 20.7916 9.37501H18.7916ZM12.5 3.08334C15.9748 3.08334 18.7916 5.90022 18.7916 9.37501H20.7916C20.7916 4.79565 17.0793 1.08334 12.5 1.08334V3.08334ZM6.20831 9.37501C6.20831 5.90022 9.02519 3.08334 12.5 3.08334V1.08334C7.92062 1.08334 4.20831 4.79565 4.20831 9.37501H6.20831ZM12.5614 17.6662C11.8449 17.2959 10.2232 16.3682 8.79326 14.9311C7.36222 13.4928 6.20831 11.6335 6.20831 9.37501H4.20831C4.20831 12.361 5.74016 14.6981 7.37547 16.3417C9.0119 17.9864 10.8371 19.0263 11.643 19.4429L12.5614 17.6662ZM12.4386 17.6662C12.4516 17.6594 12.4732 17.6526 12.5 17.6526C12.5268 17.6526 12.5483 17.6594 12.5614 17.6662L11.643 19.4429C12.1841 19.7225 12.8159 19.7225 13.3569 19.4429L12.4386 17.6662ZM14.625 9.37501C14.625 10.5486 13.6736 11.5 12.5 11.5V13.5C14.7782 13.5 16.625 11.6532 16.625 9.37501H14.625ZM12.5 7.25001C13.6736 7.25001 14.625 8.20141 14.625 9.37501H16.625C16.625 7.09684 14.7782 5.25001 12.5 5.25001V7.25001ZM10.375 9.37501C10.375 8.20141 11.3264 7.25001 12.5 7.25001V5.25001C10.2218 5.25001 8.37498 7.09684 8.37498 9.37501H10.375ZM12.5 11.5C11.3264 11.5 10.375 10.5486 10.375 9.37501H8.37498C8.37498 11.6532 10.2218 13.5 12.5 13.5V11.5Z" fill="#33363F"/>
<path d="M20.619 18.2292C21.4418 18.7042 21.875 19.2431 21.875 19.7917C21.875 20.3402 21.4418 20.8791 20.619 21.3542C19.7962 21.8292 18.6127 22.2237 17.1875 22.498C15.7623 22.7723 14.1457 22.9167 12.5 22.9167C10.8543 22.9167 9.23768 22.7723 7.8125 22.498C6.38732 22.2237 5.20384 21.8292 4.38101 21.3542C3.55818 20.8791 3.125 20.3402 3.125 19.7917C3.125 19.2431 3.55818 18.7042 4.38101 18.2292" stroke="#33363F" stroke-width="2" stroke-linecap="round"/>
</svg>
